<svg xmlns="http://www.w3.org/2000/svg" xmlns:xlink="http://www.w3.org/1999/xlink" version="1.1" x="0px" y="0px" viewBox="0 0 64 80" style="enable-background:new 0 0 64 64;" xml:space="preserve"><g><path d="M63.916,25.599l-7-16c-0.118-0.271-0.352-0.476-0.636-0.559L34.983,2.828C34.892,1.255,33.596,0,32,0   c-1.652,0-2.995,1.342-2.999,2.992L14.323,8.125C13.773,7.445,12.942,7,12,7c-1.654,0-3,1.346-3,3c0,0.614,0.187,1.185,0.505,1.661   l-5.616,7.489C3.606,19.061,3.311,19,3,19c-1.654,0-3,1.346-3,3c0,1.492,1.097,2.723,2.525,2.952l3.983,21.461   C5.611,46.932,5,47.891,5,49c0,1.654,1.346,3,3,3c0.503,0,0.971-0.136,1.388-0.356l8.858,8.172C18.089,60.18,18,60.579,18,61   c0,1.654,1.346,3,3,3c1.302,0,2.402-0.839,2.816-2H45c0.292,0,0.569-0.127,0.759-0.349l12-14c0.094-0.109,0.163-0.238,0.203-0.376   l6-21C64.025,26.051,64.01,25.812,63.916,25.599z M32,2c0.552,0,1,0.449,1,1s-0.448,1-1,1s-1-0.449-1-1S31.448,2,32,2z M33,52.97   c1.7-0.085,3.846-0.348,5.518-0.583c-1.186,1.093-3.024,2.297-5.518,2.559V52.97z M33,50.968v-1.247l1.923-0.641l2.797,1.398   C36.21,50.683,34.426,50.891,33,50.968z M8.475,46.048l-3.85-20.746l4.751,5.275C9.144,31.003,9,31.482,9,32c0,1.654,1.346,3,3,3   c0.169,0,0.332-0.023,0.493-0.05l2.267,4.074C14.293,39.554,14,40.24,14,41c0,0.399,0.082,0.778,0.224,1.126l-4.783,4.259   C9.144,46.221,8.822,46.104,8.475,46.048z M12,13c0.809,0,1.54-0.325,2.08-0.847l14.956,7.487c-0.012,0.101-0.029,0.2-0.031,0.304   l-14.992,4.997l-8.016-2.918C5.998,22.015,6,22.008,6,22c0-0.614-0.187-1.185-0.505-1.661l5.616-7.489   C11.394,12.939,11.689,13,12,13z M31,5.816v11.369c-0.407,0.145-0.776,0.368-1.08,0.662L14.964,10.36   c0.014-0.117,0.035-0.232,0.036-0.352l14.677-5.133C30.021,5.301,30.474,5.628,31,5.816z M30.051,41.738l-3.992-2.284l0.654-6.549   c0.981-0.242,1.767-0.964,2.102-1.905H31v10.184C30.648,41.31,30.329,41.498,30.051,41.738z M19.668,39.657   c-0.035-0.069-0.07-0.137-0.11-0.203l5.116-6.253l-0.59,5.906L19.668,39.657z M11.944,29.006c-0.385,0.007-0.753,0.084-1.09,0.224   l-4.436-4.926l6.326,2.303L11.944,29.006z M12,31c0.552,0,1,0.449,1,1s-0.448,1-1,1s-1-0.449-1-1S11.448,31,12,31z M13.838,29.647   l0.795-2.382l8.373,2.791c0.01,0.546,0.171,1.053,0.437,1.49l-5.434,6.641C17.692,38.073,17.356,38,17,38   c-0.169,0-0.332,0.023-0.493,0.05l-2.267-4.074C14.707,33.446,15,32.76,15,32C15,31.042,14.54,30.196,13.838,29.647z M26,31   c-0.552,0-1-0.449-1-1s0.448-1,1-1s1,0.449,1,1S26.552,31,26,31z M16,41c0-0.551,0.448-1,1-1s1,0.449,1,1s-0.448,1-1,1   S16,41.551,16,41z M31,29h-2.184c-0.414-1.161-1.514-2-2.816-2c-0.958,0-1.803,0.46-2.353,1.161L17.163,26l12.484-4.161   c0.348,0.444,0.812,0.784,1.353,0.977V29z M10.776,47.874l4.783-4.259c0.309,0.171,0.647,0.289,1.01,0.342l2.848,14.22   l-8.663-7.993C10.911,49.82,11,49.421,11,49C11,48.601,10.918,48.222,10.776,47.874z M21.431,58.044l-2.9-14.478   c0.7-0.419,1.218-1.106,1.397-1.926l4.864-0.606l4.261,2.438C29.023,43.644,29,43.819,29,44c0,0.686,0.241,1.312,0.63,1.818   l-7.935,12.271C21.608,58.069,21.52,58.057,21.431,58.044z M23.37,59.182L31,47.383V60h-7.184   C23.709,59.702,23.559,59.428,23.37,59.182z M32,45c-0.552,0-1-0.449-1-1s0.448-1,1-1s1,0.449,1,1S32.552,45,32,45z M32,21   c-0.552,0-1-0.449-1-1s0.448-1,1-1s1,0.449,1,1S32.552,21,32,21z M12,9c0.552,0,1,0.449,1,1s-0.448,1-1,1s-1-0.449-1-1   S11.448,9,12,9z M2,22c0-0.551,0.448-1,1-1s1,0.449,1,1s-0.448,1-1,1S2,22.551,2,22z M8,50c-0.552,0-1-0.449-1-1s0.448-1,1-1   s1,0.449,1,1S8.552,50,8,50z M21,62c-0.552,0-1-0.449-1-1s0.448-1,1-1s1,0.449,1,1S21.552,62,21,62z M56.099,46.515L44.54,60H33   v-3.05c5.82-0.501,8.73-5.223,8.857-5.435L41.85,51.51c0.066-0.11,0.119-0.229,0.139-0.361c0.064-0.429-0.154-0.85-0.542-1.043   l-6-3c-0.237-0.118-0.51-0.138-0.764-0.054L33,47.612v-0.797c1.072-0.382,1.855-1.351,1.97-2.523l3.081-0.772   c0.831-0.208,1.534-0.764,1.931-1.526c0.397-0.764,0.449-1.661,0.142-2.462l-4.19-10.89l-1.867,0.718l4.19,10.89   c0.104,0.271,0.087,0.562-0.048,0.822c-0.135,0.259-0.362,0.439-0.643,0.51L34.5,42.349c-0.356-0.537-0.883-0.944-1.5-1.164V22.816   c1.161-0.414,2-1.514,2-2.816s-0.839-2.402-2-2.816V5.816c0.578-0.206,1.073-0.578,1.427-1.066l20.845,6.08l6.668,15.242   L56.099,46.515z"/><path d="M45,24c-4.304,0-7.646,4.204-7.787,4.383c-0.284,0.362-0.284,0.871,0,1.233C37.354,29.796,40.696,34,45,34   s7.646-4.204,7.787-4.383c0.284-0.362,0.284-0.871,0-1.233C52.646,28.204,49.304,24,45,24z M45,32c-2.462,0-4.672-1.966-5.662-3   c0.99-1.034,3.2-3,5.662-3s4.672,1.966,5.662,3C49.672,30.034,47.462,32,45,32z"/><path d="M48,29c0-1.654-1.346-3-3-3s-3,1.346-3,3s1.346,3,3,3S48,30.654,48,29z M45,30c-0.552,0-1-0.449-1-1s0.448-1,1-1   s1,0.449,1,1S45.552,30,45,30z"/><path d="M35.293,24.293l1.414,1.414C38.631,23.783,43.403,21,47,21c3.707,0,7.516,1.876,7.554,1.895l0.894-1.789   C55.275,21.02,51.187,19,47,19C42.624,19,37.428,22.158,35.293,24.293z"/></g><text x="0" y="79" fill="#000000" font-size="5px" font-weight="bold" font-family="'Helvetica Neue', Helvetica, Arial-Unicode, Arial, Sans-serif">Created by Becris</text><text x="0" y="84" fill="#000000" font-size="5px" font-weight="bold" font-family="'Helvetica Neue', Helvetica, Arial-Unicode, Arial, Sans-serif">from the Noun Project</text></svg>